<svg width="40" height="40" viewBox="0 0 40 40" fill="none" xmlns="http://www.w3.org/2000/svg">
<g id="Travel" clip-path="url(#clip0_401_121)">
<g id="Outline">
<path id="Vector" d="M16.3393 21.7358L19.4292 32.387C20.5092 32.1174 21.595 31.8713 22.6857 31.6487L19.5458 20.8208C21.1025 19.04 23.1373 17.7432 25.4089 17.0843C28.3624 16.2272 31.5287 16.4943 34.2969 17.8343C31.817 9.53794 23.4373 4.60148 15.086 6.27141L14.5827 4.53981C14.4499 4.127 14.1614 3.78222 13.7784 3.57867C13.3955 3.37513 12.9483 3.32886 12.5319 3.44968C12.1154 3.57051 11.7624 3.84891 11.5478 4.22578C11.3333 4.60265 11.2741 5.0483 11.3828 5.46811L11.8978 7.2447C4.22479 10.4496 -0.00336468 18.9375 2.29487 27.1172C3.72672 24.8093 5.8749 23.0338 8.41107 22.062C10.9472 21.0902 13.7319 20.9756 16.3393 21.7358Z" fill="#25B1FF"/>
<path id="Vector_2" d="M6.66968 40.0017H38.335V31.6687C20.0025 31.6687 6.66968 38.3351 6.66968 40.0017Z" fill="#25B1FF"/>
</g>
</g>
<defs>
<clipPath id="clip0_401_121">
<rect width="39.9983" height="40" fill="white"/>
</clipPath>
</defs>
</svg>
